<?xml version="1.0" encoding="UTF-8"?><svg id="uuid-98ff9fcd-3bb9-4f19-ae44-d039fa3df4b1" xmlns="http://www.w3.org/2000/svg" viewBox="0 0 207.4 55.12"><g id="uuid-2ff6894f-1682-4dc4-adc9-4ea45ad43419"><path d="M196.65,2c4.83,0,8.75,3.93,8.75,8.75v33.62c0,4.83-3.93,8.75-8.75,8.75H10.75c-4.83,0-8.75-3.93-8.75-8.75V10.75C2,5.93,5.93,2,10.75,2h185.9M196.65,0H10.75C4.81,0,0,4.81,0,10.75v33.62c0,5.94,4.81,10.75,10.75,10.75h185.9c5.94,0,10.75-4.81,10.75-10.75V10.75c0-5.94-4.81-10.75-10.75-10.75h0Z" style="fill:#3e72b8;"/><path d="M24.81,55.12H7.73C3.46,55.12,0,51.66,0,47.39V7.72C0,3.46,3.46,0,7.72,0h17.08v55.12Z" style="fill:#3e72b8;"/><rect x="52.9" y="31.81" width="122.26" height="12.06" style="fill:none;"/><path d="M54.13,38.85c.12.81.5,1.24,1.39,1.24,1.57,0,2.2-1.85,2.49-3.43-.39.64-1.11,1.02-1.99,1.02-1.18,0-2.12-.76-2.12-2.23,0-1.35.96-2.82,2.74-2.82,1.51,0,2.23,1.08,2.23,2.68s-.52,5.45-3.43,5.45c-1.56,0-1.99-.99-2.06-1.91h.75ZM54.69,35.41c0,1.02.6,1.6,1.48,1.6,1.08,0,1.93-.77,1.93-1.91,0-.94-.37-1.8-1.54-1.8-1.24,0-1.87,1.08-1.87,2.11Z" style="fill:#255dab;"/><path d="M59.5,40.64l.34-1.64h.77l-.34,1.64h-.77ZM60.42,36.24l.35-1.63h.77l-.35,1.63h-.77Z" style="fill:#255dab;"/><path d="M68.02,35.1c0,2.08-.81,5.66-3.43,5.66-1.37,0-2.04-.99-2.04-2.61,0-2.02.91-5.53,3.44-5.53,1.52,0,2.02,1.17,2.02,2.48ZM63.35,38.14c0,1.19.4,1.94,1.35,1.94,1.83,0,2.53-3.26,2.53-4.94,0-1.08-.32-1.83-1.34-1.83-1.8,0-2.54,3.17-2.54,4.83Z" style="fill:#255dab;"/><path d="M74.49,35.1c0,2.08-.81,5.66-3.43,5.66-1.37,0-2.04-.99-2.04-2.61,0-2.02.91-5.53,3.44-5.53,1.52,0,2.02,1.17,2.02,2.48ZM69.82,38.14c0,1.19.4,1.94,1.35,1.94,1.83,0,2.53-3.26,2.53-4.94,0-1.08-.32-1.83-1.34-1.83-1.8,0-2.54,3.17-2.54,4.83Z" style="fill:#255dab;"/><path d="M80.01,37.87l-1.52,2.77h-.86l4.69-8.37h.94l1.32,8.37h-.81l-.43-2.77h-3.33ZM83.24,37.16c-.33-2.08-.54-3.48-.6-4.12h-.01c-.36.73-1.16,2.2-2.23,4.12h2.85Z" style="fill:#255dab;"/><path d="M93.67,36.91c.34-1.6.69-3.19.91-4.04h-.04c-.54,1.14-2.92,5.21-4.4,7.77h-.77c-.3-2.09-1.03-7.02-1.08-7.78h-.03c-.13.88-.54,2.86-.84,4.3l-.72,3.48h-.79l1.77-8.37h1.23c.41,2.65.97,6.32,1.05,7.34h.02c.33-.7,2.71-4.72,4.25-7.34h1.24l-1.77,8.37h-.81l.79-3.72Z" style="fill:#255dab;"/><path d="M99.02,37.21l-.15.73h-2.96l.15-.73h2.96Z" style="fill:#255dab;"/><path d="M103.94,38.85c.12.81.5,1.24,1.39,1.24,1.57,0,2.2-1.85,2.49-3.43-.39.64-1.11,1.02-1.99,1.02-1.18,0-2.12-.76-2.12-2.23,0-1.35.96-2.82,2.74-2.82,1.51,0,2.23,1.08,2.23,2.68s-.52,5.45-3.43,5.45c-1.56,0-1.99-.99-2.06-1.91h.75ZM104.5,35.41c0,1.02.6,1.6,1.48,1.6,1.08,0,1.93-.77,1.93-1.91,0-.94-.37-1.8-1.54-1.8-1.24,0-1.87,1.08-1.87,2.11Z" style="fill:#255dab;"/><path d="M109.31,40.64l.34-1.64h.77l-.34,1.64h-.77ZM110.24,36.24l.35-1.63h.77l-.35,1.63h-.77Z" style="fill:#255dab;"/><path d="M117.58,33.43h-3.32c-.22.8-.6,2.15-.77,2.63.44-.41.92-.66,1.72-.66,1.22,0,2.05.84,2.05,2.21,0,1.62-.98,3.15-2.95,3.15-1.34,0-2.24-.75-2.31-2.13h.76c.1.85.6,1.45,1.6,1.45,1.46,0,2.1-1.24,2.1-2.39,0-.93-.44-1.59-1.46-1.59s-1.42.47-1.81.99l-.65-.27c.25-.73.8-2.59,1.21-4.08h4.08l-.25.69Z" style="fill:#255dab;"/><path d="M123.99,35.1c0,2.08-.81,5.66-3.43,5.66-1.37,0-2.04-.99-2.04-2.61,0-2.02.91-5.53,3.44-5.53,1.52,0,2.02,1.17,2.02,2.48ZM119.32,38.14c0,1.19.4,1.94,1.35,1.94,1.83,0,2.53-3.26,2.53-4.94,0-1.08-.32-1.83-1.34-1.83-1.8,0-2.54,3.17-2.54,4.83Z" style="fill:#255dab;"/><path d="M129.51,37.87l-1.52,2.77h-.86l4.69-8.37h.94l1.32,8.37h-.81l-.43-2.77h-3.33ZM132.74,37.16c-.33-2.08-.54-3.48-.6-4.12h-.01c-.36.73-1.16,2.2-2.23,4.12h2.85Z" style="fill:#255dab;"/><path d="M143.17,36.91c.34-1.6.69-3.19.91-4.04h-.04c-.54,1.14-2.92,5.21-4.4,7.77h-.77c-.3-2.09-1.03-7.02-1.08-7.78h-.03c-.13.88-.54,2.86-.84,4.3l-.72,3.48h-.79l1.77-8.37h1.23c.41,2.65.97,6.32,1.05,7.34h.02c.33-.7,2.71-4.72,4.25-7.34h1.24l-1.77,8.37h-.81l.79-3.72Z" style="fill:#255dab;"/><rect x="51.78" y="16.38" width="136.75" height="12.06" style="fill:none;"/><path d="M58.45,21.57h-3.95v2.1h4.36l-.21,1.47h-5.89v-8.27h5.86v1.47h-4.13v1.77h3.95v1.47Z" style="fill:#255dab;"/><path d="M61.41,18.93c.65,1.17.91,1.63,1.1,1.95h.01c.21-.38.59-1.06,1.1-1.95h1.91l-2.01,2.96,2.01,3.25h-1.94c-.56-1.05-.91-1.73-1.09-2.09h-.01c-.16.33-.59,1.13-1.1,2.09h-1.88l1.92-3.03-1.91-3.18h1.9Z" style="fill:#255dab;"/><path d="M71.5,23.53c0,.59.05,1.45.08,1.6h-1.64c-.05-.12-.08-.45-.09-.61-.23.35-.65.75-1.75.75-1.5,0-2.13-.98-2.13-1.95,0-1.41,1.14-2.07,2.96-2.07h.89v-.38c0-.44-.16-.88-.96-.88-.73,0-.88.31-.96.76h-1.63c.09-1.1.78-2,2.66-1.98,1.66.01,2.57.66,2.57,2.14v2.61ZM69.83,22.31h-.7c-1.04,0-1.42.32-1.42.92,0,.45.28.83.89.83,1.09,0,1.23-.76,1.23-1.58v-.16Z" style="fill:#255dab;"/><path d="M73.06,20.53c0-.54,0-1.07-.01-1.6h1.64c.02.15.06.5.07.74.31-.46.81-.88,1.73-.88s1.38.46,1.6.94c.36-.51.9-.94,1.91-.94,1.08,0,1.97.66,1.97,2.28v4.07h-1.68v-3.86c0-.56-.2-1.11-.91-1.11s-1.02.47-1.02,1.42v3.55h-1.69v-3.8c0-.64-.16-1.16-.89-1.16s-1.03.43-1.03,1.49v3.47h-1.7v-4.61Z" style="fill:#255dab;"/><path d="M87.84,22.71c.19.83.78,1.19,1.74,1.19s1.36-.38,1.36-.98c0-.67-.4-.97-1.81-1.29-2.25-.53-2.81-1.35-2.81-2.46,0-1.44,1.08-2.42,3.04-2.42,2.2,0,3.07,1.18,3.19,2.39h-1.8c-.09-.51-.37-1.06-1.43-1.06-.73,0-1.16.3-1.16.89s.35.81,1.69,1.12c2.41.57,2.93,1.46,2.93,2.63,0,1.51-1.14,2.55-3.33,2.55s-3.2-1.03-3.4-2.54h1.8Z" style="fill:#255dab;"/><path d="M93.29,18.93h.96v-1.68h1.72v1.68h1.22v1.29h-1.22v3.06c0,.47.14.65.66.65.1,0,.26,0,.39-.02v1.18c-.34.12-.81.12-1.16.12-1.21,0-1.61-.65-1.61-1.73v-3.27h-.96v-1.29Z" style="fill:#255dab;"/><path d="M103.58,23.33c0,.6,0,1.25.01,1.8h-1.68c-.02-.17-.04-.5-.05-.72-.37.62-.92.86-1.71.86-1.26,0-2.07-.77-2.07-2.31v-4.04h1.72v3.7c0,.69.21,1.25.96,1.25.78,0,1.11-.42,1.11-1.65v-3.3h1.72v4.4Z" style="fill:#255dab;"/><path d="M110.88,16.38v7.05c0,.57,0,1.14.01,1.71h-1.65c-.03-.19-.07-.51-.08-.65-.3.49-.83.79-1.76.79-1.57,0-2.57-1.26-2.57-3.2s1.06-3.3,2.82-3.3c.89,0,1.37.31,1.51.59v-3h1.72ZM106.6,22.04c0,1.21.47,1.87,1.31,1.87,1.18,0,1.32-.99,1.32-1.88,0-1.06-.15-1.86-1.27-1.86-.9,0-1.36.7-1.36,1.88Z" style="fill:#255dab;"/><path d="M113.6,18.93c.64,2.14,1.2,4.05,1.3,4.63h.01c.13-.63.5-2.02,1.24-4.63h1.71l-2.09,6.39c-.59,1.79-1.09,2.32-2.58,2.32-.15,0-.51-.01-.81-.05v-1.38c.12.01.31.03.44.03.63,0,.95-.22,1.18-.91l-2.26-6.4h1.84Z" style="fill:#255dab;"/><path d="M121.81,16.87h3.61c2,0,2.76,1.04,2.76,2.12,0,.93-.49,1.54-1.05,1.79.56.21,1.29.8,1.29,1.88,0,1.42-1.11,2.48-2.87,2.48h-3.73v-8.27ZM125.22,20.13c.85,0,1.2-.38,1.2-.96s-.46-.92-1.15-.92h-1.7v1.88h1.65ZM123.57,23.76h1.61c.97,0,1.4-.4,1.4-1.15,0-.67-.43-1.09-1.41-1.09h-1.6v2.25Z" style="fill:#255dab;"/><path d="M129.59,25.14v-8.75h1.72v8.75h-1.72Z" style="fill:#255dab;"/><path d="M138.63,22.02c0,1.88-1.12,3.26-3.09,3.26s-3.05-1.37-3.05-3.23,1.16-3.27,3.13-3.27c1.83,0,3.01,1.29,3.01,3.24ZM134.24,22.03c0,1.19.51,1.9,1.34,1.9s1.31-.71,1.31-1.89c0-1.3-.48-1.91-1.33-1.91-.8,0-1.32.59-1.32,1.9Z" style="fill:#255dab;"/><path d="M145.26,23.13c-.21,1.03-.94,2.15-2.79,2.15s-2.93-1.34-2.93-3.2,1.12-3.29,3.01-3.29c2.09,0,2.67,1.5,2.71,2.2h-1.68c-.11-.51-.39-.86-1.06-.86-.79,0-1.23.69-1.23,1.89,0,1.32.47,1.92,1.22,1.92.59,0,.91-.35,1.06-.82h1.69Z" style="fill:#255dab;"/><path d="M148.04,21.55c.46-.62,1.28-1.58,2.14-2.62h1.97l-2.16,2.34,2.37,3.86h-1.95l-1.57-2.76-.79.77v1.99h-1.72v-8.75h1.72v5.17Z" style="fill:#255dab;"/><path d="M17.27,20.28v2.85c0,2.1-1.59,3.47-4.03,3.47s-4.24-1.33-4.24-3.53v-2.79h8.27ZM10.45,21.83v1.17c0,1.38,1.18,1.99,2.79,1.99,1.35,0,2.59-.57,2.59-1.98v-1.18h-5.38Z" style="fill:#fff;"/><path d="M13.17,35.11c-2.3,0-4.28-1.2-4.28-3.54s1.89-3.44,4.25-3.44,4.25,1.31,4.25,3.54c0,2.1-1.69,3.44-4.23,3.44ZM13.17,29.73c-1.61,0-2.84.62-2.84,1.89,0,1.38,1.33,1.87,2.81,1.87,1.56,0,2.79-.56,2.79-1.9s-1.15-1.87-2.76-1.87Z" style="fill:#fff;"/></g></svg>