<?xml version="1.0" encoding="UTF-8"?><svg id="uuid-28cf407f-644c-4700-a3af-0592fd754691" xmlns="http://www.w3.org/2000/svg" viewBox="0 0 207.4 55.12"><g id="uuid-ddb3a857-8159-4b51-9294-412e27a065cb"><path d="M196.65,2c4.83,0,8.75,3.93,8.75,8.75v33.62c0,4.83-3.93,8.75-8.75,8.75H10.75c-4.83,0-8.75-3.93-8.75-8.75V10.75C2,5.93,5.93,2,10.75,2h185.9M196.65,0H10.75C4.81,0,0,4.81,0,10.75v33.62c0,5.94,4.81,10.75,10.75,10.75h185.9c5.94,0,10.75-4.81,10.75-10.75V10.75c0-5.94-4.81-10.75-10.75-10.75h0Z" style="fill:#3e72b8;"/><path d="M24.81,55.12H7.73C3.46,55.12,0,51.66,0,47.39V7.72C0,3.46,3.46,0,7.72,0h17.08v55.12Z" style="fill:#3e72b8;"/><rect x="52.9" y="31.81" width="130.67" height="12.06" style="fill:none;"/><path d="M55.09,32.26h2.58c1.63,0,2.48.93,2.48,2.17,0,1.77-1.31,2.64-3.16,2.64h-2.12l-.75,3.57h-.8l1.77-8.37ZM55.02,36.37h2c1.36,0,2.28-.55,2.28-1.9,0-1.07-.74-1.51-1.86-1.51h-1.69l-.72,3.41Z" style="fill:#255dab;"/><path d="M66.1,36.94c0,1.66-.93,3.82-3.16,3.82-1.38,0-2.2-.89-2.2-2.41,0-1.69,1.02-3.87,3.15-3.87,1.35,0,2.21.92,2.21,2.46ZM61.53,38.34c0,1.07.53,1.75,1.51,1.75,1.57,0,2.28-1.78,2.28-3.14,0-1.11-.48-1.79-1.5-1.79-1.51,0-2.29,1.77-2.29,3.19Z" style="fill:#255dab;"/><path d="M67.59,38.84c.08.67.47,1.26,1.55,1.26.88,0,1.37-.45,1.37-1.09s-.42-.92-1.32-1.26c-1.26-.46-1.64-.91-1.64-1.59,0-.88.67-1.68,2.07-1.68,1.52,0,2.04.89,2.03,1.71h-.77c-.05-.46-.26-1.07-1.35-1.07-.72,0-1.2.38-1.2.97,0,.46.35.69,1.25,1.03,1.22.46,1.74.94,1.74,1.79,0,1.13-.86,1.85-2.31,1.85s-2.17-.83-2.19-1.91h.77Z" style="fill:#255dab;"/><path d="M72.64,34.6h1.04l.38-1.79h.76l-.38,1.79h1.34l-.15.66h-1.34l-.81,3.88c-.13.62-.11.89.43.89.17,0,.44-.01.63-.06l-.15.64c-.25.09-.51.1-.75.1-.83,0-1.17-.36-.97-1.34l.87-4.11h-1.04l.15-.66Z" style="fill:#255dab;"/><path d="M79.15,37.21l-.15.73h-2.96l.15-.73h2.96Z" style="fill:#255dab;"/><path d="M82.36,32.97h-2.66l.15-.7h6.13l-.15.7h-2.67l-1.61,7.67h-.81l1.62-7.67Z" style="fill:#255dab;"/><path d="M85.2,37.69c-.03.28-.06.43-.06.66,0,1.16.58,1.74,1.47,1.74.97,0,1.42-.54,1.72-1.1h.79c-.42.95-1.14,1.77-2.62,1.77s-2.14-1-2.14-2.37c0-1.74.95-3.91,3.11-3.91,1.56,0,2.07,1.05,2.07,2.09,0,.34-.03.69-.15,1.11h-4.21ZM88.77,37.06c.03-.17.04-.34.04-.5,0-.93-.45-1.42-1.38-1.42-.99,0-1.74.7-2.08,1.92h3.42Z" style="fill:#255dab;"/><path d="M91.22,36.39c.12-.59.25-1.23.35-1.79h.73c-.01.16-.12.82-.24,1.34.45-.9,1.29-1.46,2.16-1.46l-.18.81c-1.17.11-2.07,1.08-2.36,2.44l-.61,2.9h-.76l.91-4.25Z" style="fill:#255dab;"/><path d="M95.07,36.29c.12-.57.23-1.1.34-1.69h.74c-.01.16-.1.7-.18,1.02.38-.6.9-1.14,1.86-1.14.83,0,1.3.37,1.41,1.15.41-.62,1.01-1.15,2.03-1.15s1.79.59,1.43,2.25l-.82,3.9h-.75l.81-3.83c.17-.76.14-1.63-.92-1.63s-1.67.95-1.89,2.01l-.73,3.45h-.74l.78-3.67c.23-1.07.12-1.79-.84-1.79-1.06,0-1.75,1.03-1.98,2.13l-.7,3.33h-.75l.92-4.34Z" style="fill:#255dab;"/><path d="M113.9,38.21c-.6,1.51-1.62,2.52-3.58,2.52-2.14,0-3.01-1.54-3.01-3.35,0-2.57,1.4-5.24,4.19-5.24,1.76,0,2.81,1.01,2.9,2.62h-.83c-.1-1.17-.8-1.92-2.15-1.92-2.14,0-3.25,2.25-3.25,4.51,0,1.45.65,2.69,2.26,2.69,1.16,0,2.03-.54,2.62-1.83h.85Z" style="fill:#255dab;"/><path d="M120.43,36.94c0,1.66-.93,3.82-3.16,3.82-1.37,0-2.2-.89-2.2-2.41,0-1.69,1.02-3.87,3.15-3.87,1.35,0,2.21.92,2.21,2.46ZM115.86,38.34c0,1.07.53,1.75,1.5,1.75,1.57,0,2.28-1.78,2.28-3.14,0-1.11-.48-1.79-1.5-1.79-1.51,0-2.28,1.77-2.28,3.19Z" style="fill:#255dab;"/><path d="M122.12,36.29c.12-.57.23-1.1.34-1.69h.74c-.01.16-.1.7-.18,1.02.38-.6.9-1.14,1.86-1.14.83,0,1.3.37,1.41,1.15.41-.62,1.01-1.15,2.03-1.15s1.79.59,1.43,2.25l-.82,3.9h-.75l.81-3.83c.17-.76.14-1.63-.92-1.63s-1.67.95-1.89,2.01l-.73,3.45h-.74l.78-3.67c.23-1.07.12-1.79-.84-1.79-1.06,0-1.75,1.03-1.98,2.13l-.7,3.33h-.75l.92-4.34Z" style="fill:#255dab;"/><path d="M131.79,39.74l-.7,3.29h-.77l1.41-6.64c.18-.83.3-1.42.36-1.79h.75c0,.13-.12.74-.2,1.13.46-.72,1.13-1.25,2.13-1.25,1.22,0,1.91.9,1.91,2.26,0,2-1.12,4.02-3.13,4.02-1.07,0-1.56-.52-1.76-1.02ZM135.88,36.81c0-1.06-.5-1.63-1.35-1.63-1.23,0-2.07,1.25-2.34,2.48-.31,1.45.09,2.42,1.39,2.42,1.57,0,2.29-1.82,2.29-3.26Z" style="fill:#255dab;"/><path d="M137.45,40.64l1.87-8.82h.76l-1.87,8.82h-.76Z" style="fill:#255dab;"/><path d="M141.42,34.6h.76l-1.28,6.04h-.76l1.28-6.04ZM142.01,31.81h.76l-.25,1.23h-.76l.25-1.23Z" style="fill:#255dab;"/><path d="M147.66,38.89c-.45,1.16-1.29,1.86-2.59,1.86-1.46,0-2.13-.99-2.13-2.37,0-1.84,1.01-3.9,3.07-3.9,1.6,0,2.08,1.17,2.01,2.01h-.75c-.03-.76-.38-1.35-1.33-1.35-1.5,0-2.21,1.75-2.21,3.18,0,1.26.58,1.78,1.46,1.78.75,0,1.33-.47,1.7-1.21h.77Z" style="fill:#255dab;"/><path d="M153.26,39.13c-.09.46-.25,1.23-.29,1.5h-.75c.02-.24.1-.63.18-1.02-.3.52-.86,1.14-2.13,1.14s-1.65-.79-1.65-1.51c0-1.74,1.67-2.09,2.83-2.19.67-.06,1.23-.06,1.51-.07l.09-.46c.12-.62.07-1.41-1.2-1.41-1.11,0-1.45.58-1.64,1.1h-.77c.2-.87.87-1.74,2.49-1.74,1.35,0,2.17.63,1.89,2.03l-.55,2.62ZM152.85,37.6c-.3.01-.72,0-1.31.06-1.01.09-2.09.34-2.09,1.49,0,.5.34.93,1.06.93,1.4,0,2.01-1.08,2.32-2.39l.02-.1Z" style="fill:#255dab;"/><path d="M155.23,34.6h1.04l.38-1.79h.76l-.38,1.79h1.34l-.15.66h-1.34l-.81,3.88c-.13.62-.11.89.43.89.17,0,.44-.01.63-.06l-.15.64c-.25.09-.51.1-.75.1-.83,0-1.17-.36-.97-1.34l.87-4.11h-1.04l.15-.66Z" style="fill:#255dab;"/><path d="M159.6,34.6h.76l-1.28,6.04h-.76l1.28-6.04ZM160.19,31.81h.76l-.25,1.23h-.76l.25-1.23Z" style="fill:#255dab;"/><path d="M166.48,36.94c0,1.66-.93,3.82-3.16,3.82-1.37,0-2.2-.89-2.2-2.41,0-1.69,1.02-3.87,3.15-3.87,1.35,0,2.21.92,2.21,2.46ZM161.9,38.34c0,1.07.53,1.75,1.5,1.75,1.57,0,2.28-1.78,2.28-3.14,0-1.11-.48-1.79-1.5-1.79-1.51,0-2.28,1.77-2.28,3.19Z" style="fill:#255dab;"/><path d="M168.2,36.13c.11-.53.21-1.04.3-1.53h.74c-.02.2-.16.97-.21,1.13.37-.62.97-1.25,2.11-1.25s1.87.65,1.5,2.33l-.8,3.82h-.76l.79-3.78c.21-1,0-1.68-1.02-1.68-1.25,0-1.95,1.2-2.22,2.48l-.63,2.98h-.76l.95-4.5Z" style="fill:#255dab;"/><path d="M174.24,38.84c.08.67.47,1.26,1.55,1.26.88,0,1.37-.45,1.37-1.09s-.42-.92-1.32-1.26c-1.26-.46-1.64-.91-1.64-1.59,0-.88.67-1.68,2.07-1.68,1.52,0,2.04.89,2.03,1.71h-.77c-.05-.46-.26-1.07-1.35-1.07-.72,0-1.2.38-1.2.97,0,.46.35.69,1.25,1.03,1.21.46,1.74.94,1.74,1.79,0,1.13-.86,1.85-2.31,1.85s-2.17-.83-2.19-1.91h.77Z" style="fill:#255dab;"/><rect x="51.78" y="16.38" width="136.75" height="12.06" style="fill:none;"/><path d="M59.78,22.59c-.33,1.54-1.5,2.67-3.57,2.67-2.62,0-3.86-1.86-3.86-4.21s1.28-4.3,3.95-4.3c2.2,0,3.27,1.29,3.47,2.67h-1.79c-.17-.64-.62-1.27-1.74-1.27-1.47,0-2.04,1.33-2.04,2.83,0,1.4.49,2.87,2.09,2.87,1.17,0,1.54-.78,1.69-1.26h1.8Z" style="fill:#255dab;"/><path d="M62.63,16.38v3.28c.27-.4.78-.88,1.78-.88,1.16,0,2.08.69,2.08,2.37v3.98h-1.71v-3.73c0-.81-.29-1.24-1.01-1.24-.96,0-1.14.71-1.14,1.67v3.29h-1.72v-8.75h1.72Z" style="fill:#255dab;"/><path d="M73.12,23.53c0,.59.05,1.45.08,1.6h-1.64c-.05-.12-.08-.45-.09-.61-.22.35-.65.75-1.75.75-1.5,0-2.13-.98-2.13-1.95,0-1.41,1.14-2.07,2.96-2.07h.89v-.38c0-.44-.16-.88-.96-.88-.73,0-.88.31-.96.76h-1.63c.09-1.1.78-2,2.66-1.98,1.66.01,2.57.66,2.57,2.14v2.61ZM71.44,22.31h-.7c-1.04,0-1.42.32-1.42.92,0,.45.28.83.89.83,1.09,0,1.23-.76,1.23-1.58v-.16Z" style="fill:#255dab;"/><path d="M76.39,24.59v2.93h-1.71v-7.09c0-.5,0-1-.01-1.5h1.67c.02.16.06.55.06.77.27-.46.82-.92,1.8-.92,1.39,0,2.47,1.17,2.47,3.09,0,2.19-1.2,3.4-2.71,3.4-.88,0-1.33-.33-1.57-.69ZM78.92,21.94c0-1.14-.46-1.78-1.28-1.78-.98,0-1.32.63-1.32,1.88,0,1.18.32,1.87,1.25,1.87s1.35-.71,1.35-1.97Z" style="fill:#255dab;"/><path d="M81.22,18.93h.96v-1.68h1.72v1.68h1.22v1.29h-1.22v3.06c0,.47.14.65.66.65.1,0,.26,0,.39-.02v1.18c-.34.12-.81.12-1.16.12-1.21,0-1.61-.65-1.61-1.73v-3.27h-.96v-1.29Z" style="fill:#255dab;"/><path d="M87.42,22.4c0,.78.39,1.54,1.25,1.54.71,0,.92-.29,1.08-.66h1.72c-.22.76-.9,2.01-2.85,2.01s-2.93-1.53-2.93-3.16c0-1.95,1-3.34,2.99-3.34,2.13,0,2.86,1.54,2.86,3.09,0,.21,0,.35-.02.52h-4.1ZM89.82,21.35c-.01-.72-.3-1.33-1.14-1.33s-1.15.57-1.22,1.33h2.36Z" style="fill:#255dab;"/><path d="M92.75,20.61c0-.62,0-1.16-.01-1.68h1.69c.02.14.05.76.05,1.09.27-.71.94-1.23,1.99-1.23v1.64c-1.25-.03-1.99.3-1.99,2.01v2.71h-1.72v-4.52Z" style="fill:#255dab;"/><path d="M104.21,19.17c-.1-.39-.32-.76-1.01-.76-1.06,0-1.33.99-1.38,2.05.33-.41.89-.73,1.79-.73,1.45,0,2.47,1.07,2.47,2.62,0,1.68-1.08,2.94-2.9,2.94-2.29,0-3.05-1.76-3.05-3.99,0-2.05.73-4.19,3.15-4.19,1.71,0,2.51,1.07,2.59,2.06h-1.66ZM104.36,22.49c0-.75-.28-1.42-1.23-1.42-.77,0-1.22.45-1.22,1.36,0,.64.31,1.49,1.22,1.49.84,0,1.22-.63,1.22-1.43Z" style="fill:#255dab;"/><path d="M36.83,1v53.12H9.54c-4.71,0-8.54-3.83-8.54-8.54V9.54C1,4.83,4.83,1,9.54,1h27.29M37.83,0H9.54C4.27,0,0,4.27,0,9.54v36.04c0,5.27,4.27,9.54,9.54,9.54h28.29V0h0Z" style="fill:#3e72b8;"/><path d="M17.27,20.28v2.85c0,2.1-1.59,3.47-4.03,3.47s-4.24-1.33-4.24-3.53v-2.79h8.27ZM10.45,21.83v1.17c0,1.38,1.18,1.99,2.79,1.99,1.35,0,2.59-.57,2.59-1.98v-1.18h-5.38Z" style="fill:#fff;"/><path d="M13.17,35.11c-2.3,0-4.28-1.2-4.28-3.54s1.89-3.44,4.25-3.44,4.25,1.31,4.25,3.54c0,2.1-1.69,3.44-4.23,3.44ZM13.17,29.73c-1.61,0-2.83.62-2.83,1.89,0,1.38,1.33,1.87,2.8,1.87,1.56,0,2.79-.56,2.79-1.9s-1.15-1.87-2.76-1.87Z" style="fill:#fff;"/><path d="M30.69,14.79h-3.21v-.86h7.04v3.12c0,1.68-.76,2.57-1.87,2.57-.9,0-1.47-.63-1.65-1.5-.16.78-.62,1.36-1.82,1.36h-.29c-.49,0-1.13-.04-1.41.11v-.85c.3-.15.86-.13,1.49-.13h.17c1.09,0,1.55-.38,1.55-1.93v-1.9ZM31.32,14.79v1.93c0,1.38.44,2.01,1.3,2.01.81,0,1.27-.63,1.27-1.86v-2.09h-2.57Z" style="fill:#255dab;"/><path d="M30.87,26.67v-4.22h-2.75v4.63l-.64-.12v-5.36h7.04v5.28h-.64v-4.43h-2.38v4.22h-.64Z" style="fill:#255dab;"/><path d="M29.78,29.85l-2.29-.99v-.86l7.04,3.03v1.04l-7.04,3.16v-.92l2.29-1.02v-3.44ZM30.41,33.05c1.98-.87,2.98-1.33,3.48-1.51h0c-.56-.22-1.78-.73-3.48-1.44v2.94Z" style="fill:#255dab;"/><path d="M34.53,36.64v2.87c0,2.32-1.35,3.91-3.46,3.91s-3.59-1.55-3.59-3.94v-2.85h7.04ZM28.12,37.49v1.9c0,2.1,1.25,3.12,2.93,3.12,1.48,0,2.85-.92,2.85-3.12v-1.9h-5.77Z" style="fill:#255dab;"/></g></svg>