<?xml version="1.0" encoding="UTF-8"?><svg id="uuid-f35ca162-6272-419c-893d-6feb2c5dee1a" xmlns="http://www.w3.org/2000/svg" viewBox="0 0 207.4 55.12"><g id="uuid-0bcf0202-ccc1-4536-b977-e6907b4c3987"><path d="M196.65,2c4.83,0,8.75,3.93,8.75,8.75v33.62c0,4.83-3.93,8.75-8.75,8.75H10.75c-4.83,0-8.75-3.93-8.75-8.75V10.75C2,5.93,5.93,2,10.75,2h185.9M196.65,0H10.75C4.81,0,0,4.81,0,10.75v33.62c0,5.94,4.81,10.75,10.75,10.75h185.9c5.94,0,10.75-4.81,10.75-10.75V10.75C207.4,4.81,202.58,0,196.65,0h0Z" style="fill:#3e72b8;"/><path d="M24.81,55.12H7.73C3.46,55.12,0,51.66,0,47.39V7.72C0,3.46,3.46,0,7.72,0h17.08v55.12Z" style="fill:#3e72b8;"/><rect x="52.9" y="31.81" width="152.25" height="12.06" style="fill:none;"/><path d="M60.21,38.21c-.6,1.51-1.62,2.52-3.58,2.52-2.14,0-3.01-1.54-3.01-3.35,0-2.57,1.4-5.24,4.19-5.24,1.76,0,2.81,1.01,2.9,2.62h-.83c-.1-1.17-.8-1.92-2.15-1.92-2.14,0-3.25,2.25-3.25,4.51,0,1.45.65,2.69,2.26,2.69,1.16,0,2.03-.54,2.62-1.83h.85Z" style="fill:#255dab;"/><path d="M65.75,39.13c-.09.46-.25,1.23-.29,1.5h-.75c.02-.24.1-.63.18-1.02-.3.52-.86,1.14-2.13,1.14s-1.65-.79-1.65-1.51c0-1.74,1.67-2.09,2.83-2.19.67-.06,1.23-.06,1.51-.07l.09-.46c.12-.62.07-1.41-1.2-1.41-1.11,0-1.45.58-1.64,1.1h-.77c.2-.87.87-1.74,2.49-1.74,1.35,0,2.17.63,1.89,2.03l-.55,2.62ZM65.33,37.6c-.3.01-.73,0-1.31.06-1.01.09-2.09.34-2.09,1.49,0,.5.34.93,1.06.93,1.4,0,2.01-1.08,2.31-2.39l.02-.1Z" style="fill:#255dab;"/><path d="M68.23,36.39c.12-.59.25-1.23.35-1.79h.73c-.01.16-.12.82-.24,1.34.45-.9,1.29-1.46,2.16-1.46l-.18.81c-1.17.11-2.07,1.08-2.36,2.44l-.61,2.9h-.76l.91-4.25Z" style="fill:#255dab;"/><path d="M72.16,37.69c-.03.28-.06.43-.06.66,0,1.16.57,1.74,1.47,1.74.97,0,1.42-.54,1.72-1.1h.79c-.42.95-1.14,1.77-2.62,1.77s-2.14-1-2.14-2.37c0-1.74.95-3.91,3.11-3.91,1.56,0,2.07,1.05,2.07,2.09,0,.34-.03.69-.15,1.11h-4.21ZM75.73,37.06c.03-.17.04-.34.04-.5,0-.93-.45-1.42-1.38-1.42-.99,0-1.74.7-2.08,1.92h3.42Z" style="fill:#255dab;"/><path d="M85.81,36.94c0,1.66-.93,3.82-3.16,3.82-1.37,0-2.2-.89-2.2-2.41,0-1.69,1.02-3.87,3.15-3.87,1.35,0,2.21.92,2.21,2.46ZM81.24,38.34c0,1.07.53,1.75,1.51,1.75,1.57,0,2.28-1.78,2.28-3.14,0-1.11-.48-1.79-1.5-1.79-1.51,0-2.28,1.77-2.28,3.19Z" style="fill:#255dab;"/><path d="M86.81,40.65l1.13-5.38h-1l.15-.66h1l.21-.96c.23-1.06.75-1.95,1.93-1.95.29,0,.53.05.65.09l-.15.68c-.13-.04-.37-.06-.53-.06-.62,0-.97.42-1.15,1.24l-.21.96h1.26l-.15.66h-1.26l-1.13,5.38h-.76Z" style="fill:#255dab;"/><path d="M96.27,32.97h-2.66l.15-.7h6.13l-.15.7h-2.67l-1.61,7.67h-.81l1.62-7.67Z" style="fill:#255dab;"/><path d="M101.85,31.81l-.81,3.83c.43-.66,1.08-1.17,2.09-1.17.83,0,1.91.4,1.52,2.26l-.82,3.89h-.76l.79-3.75c.24-1.12-.03-1.7-.99-1.7-1.09,0-1.91.9-2.18,2.16l-.71,3.3h-.76l1.87-8.82h.76Z" style="fill:#255dab;"/><path d="M106.68,37.69c-.03.28-.06.43-.06.66,0,1.16.57,1.74,1.47,1.74.97,0,1.42-.54,1.72-1.1h.79c-.42.95-1.14,1.77-2.62,1.77s-2.14-1-2.14-2.37c0-1.74.95-3.91,3.11-3.91,1.56,0,2.07,1.05,2.07,2.09,0,.34-.03.69-.15,1.11h-4.21ZM110.25,37.06c.03-.17.04-.34.04-.5,0-.93-.45-1.42-1.38-1.42-.99,0-1.74.7-2.08,1.92h3.42Z" style="fill:#255dab;"/><path d="M121.84,38.21c-.6,1.51-1.62,2.52-3.58,2.52-2.14,0-3.01-1.54-3.01-3.35,0-2.57,1.4-5.24,4.19-5.24,1.76,0,2.81,1.01,2.9,2.62h-.83c-.1-1.17-.8-1.92-2.15-1.92-2.14,0-3.25,2.25-3.25,4.51,0,1.45.65,2.69,2.26,2.69,1.16,0,2.03-.54,2.62-1.83h.85Z" style="fill:#255dab;"/><path d="M125.31,31.81l-.81,3.83c.43-.66,1.08-1.17,2.09-1.17.83,0,1.91.4,1.52,2.26l-.82,3.89h-.76l.79-3.75c.24-1.12-.03-1.7-.99-1.7-1.09,0-1.91.9-2.18,2.16l-.71,3.3h-.76l1.87-8.82h.76Z" style="fill:#255dab;"/><path d="M130.45,34.6h.76l-1.28,6.04h-.76l1.28-6.04ZM131.04,31.81h.76l-.25,1.23h-.76l.26-1.23Z" style="fill:#255dab;"/><path d="M131.85,40.64l1.87-8.82h.76l-1.87,8.82h-.76Z" style="fill:#255dab;"/><path d="M141.06,31.81l-1.51,7.12c-.12.57-.24,1.16-.34,1.7h-.74c.01-.16.1-.63.18-1.05-.41.67-1.01,1.17-2.09,1.17-1.3,0-1.93-1-1.93-2.33,0-1.75,1.03-3.94,3.14-3.94,1.08,0,1.61.62,1.73,1.05l.79-3.72h.76ZM135.44,38.36c0,1.17.53,1.7,1.37,1.7,1.36,0,2.06-1.24,2.34-2.63.28-1.35-.13-2.25-1.4-2.25-1.52,0-2.31,1.76-2.31,3.18Z" style="fill:#255dab;"/><path d="M152.93,35.49l-2.67,3.19c-.99,1.17-1.75,2.08-3.23,2.08-1.29,0-2.2-.84-2.2-2.09s.85-2.02,2.59-2.81c1.27-.6,1.99-1.11,1.99-1.98,0-.48-.27-1.11-1.07-1.11-.87,0-1.29.71-1.29,1.39,0,.53.29,1.06.8,1.62l4.16,4.86h-.98l-3.89-4.53c-.48-.57-.83-1.22-.83-1.87,0-1.2.79-2.1,2.09-2.1,1.1,0,1.76.76,1.76,1.72,0,1.2-.88,1.76-2.31,2.45-1.68.81-2.22,1.4-2.22,2.32,0,.73.59,1.39,1.48,1.39.94,0,1.54-.47,2.69-1.84l2.25-2.7h.89Z" style="fill:#255dab;"/><path d="M158.25,32.26h5l-.15.7h-4.19l-.65,3.05h3.92l-.15.7h-3.92l-.82,3.91h-.81l1.77-8.37Z" style="fill:#255dab;"/><path d="M167.25,39.13c-.09.46-.25,1.23-.29,1.5h-.75c.02-.24.1-.63.18-1.02-.3.52-.86,1.14-2.13,1.14s-1.65-.79-1.65-1.51c0-1.74,1.67-2.09,2.83-2.19.67-.06,1.23-.06,1.51-.07l.09-.46c.12-.62.07-1.41-1.2-1.41-1.11,0-1.45.58-1.64,1.1h-.77c.2-.87.87-1.74,2.49-1.74,1.35,0,2.17.63,1.89,2.03l-.55,2.62ZM166.84,37.6c-.3.01-.73,0-1.31.06-1.01.09-2.09.34-2.09,1.49,0,.5.34.93,1.06.93,1.4,0,2.01-1.08,2.31-2.39l.02-.1Z" style="fill:#255dab;"/><path d="M169.75,36.29c.12-.57.23-1.1.34-1.69h.74c-.01.16-.1.7-.18,1.02.38-.6.9-1.14,1.86-1.14.83,0,1.31.37,1.41,1.15.41-.62,1.02-1.15,2.03-1.15s1.79.59,1.43,2.25l-.82,3.9h-.75l.81-3.83c.17-.76.14-1.63-.92-1.63s-1.67.95-1.89,2.01l-.73,3.45h-.74l.78-3.67c.23-1.07.12-1.79-.84-1.79-1.06,0-1.75,1.03-1.98,2.13l-.7,3.33h-.75l.92-4.34Z" style="fill:#255dab;"/><path d="M179.75,34.6h.76l-1.28,6.04h-.76l1.28-6.04ZM180.33,31.81h.76l-.25,1.23h-.76l.26-1.23Z" style="fill:#255dab;"/><path d="M181.14,40.64l1.87-8.82h.76l-1.87,8.82h-.76Z" style="fill:#255dab;"/><path d="M185.26,34.6c.42,2.72.72,4.87.76,5.46h.01c.36-.65,1.14-2.38,2.8-5.46h.82l-3.38,6.4c-1.06,2-1.59,2.15-2.64,2.15-.28,0-.53-.04-.65-.07l.18-.71c.14.02.25.06.55.06.81,0,1.11-.34,1.76-1.47l-.98-6.36h.77Z" style="fill:#255dab;"/><rect x="51.78" y="16.38" width="136.75" height="12.06" style="fill:none;"/><path d="M60.38,20.98c0,2.3-1.38,4.28-4.07,4.28s-3.95-1.89-3.95-4.25,1.5-4.25,4.07-4.25c2.42,0,3.95,1.69,3.95,4.23ZM54.2,20.97c0,1.61.71,2.84,2.17,2.84,1.59,0,2.15-1.33,2.15-2.81,0-1.56-.64-2.79-2.18-2.79s-2.15,1.15-2.15,2.76Z" style="fill:#255dab;"/><path d="M62.83,23.27c.13.49.53.77,1.18.77s.87-.23.87-.6c0-.4-.27-.56-1.16-.77-2.02-.5-2.35-1.12-2.35-2s.65-1.88,2.52-1.88,2.52,1.03,2.57,1.87h-1.63c-.06-.23-.21-.66-1.02-.66-.57,0-.75.25-.75.53,0,.31.19.46,1.2.69,2.07.48,2.36,1.19,2.36,2.1,0,1.03-.78,1.96-2.67,1.96s-2.66-.91-2.8-2.01h1.69Z" style="fill:#255dab;"/><path d="M67.74,20.53c0-.54,0-1.07-.01-1.6h1.64c.02.15.06.5.07.74.31-.46.81-.88,1.73-.88s1.38.46,1.6.94c.36-.51.9-.94,1.91-.94,1.08,0,1.97.66,1.97,2.28v4.07h-1.68v-3.86c0-.56-.2-1.11-.91-1.11s-1.02.47-1.02,1.42v3.55h-1.69v-3.8c0-.64-.16-1.16-.89-1.16s-1.03.43-1.03,1.49v3.47h-1.7v-4.61Z" style="fill:#255dab;"/><path d="M83.97,22.02c0,1.88-1.12,3.26-3.09,3.26s-3.05-1.37-3.05-3.23,1.16-3.27,3.13-3.27c1.83,0,3.01,1.29,3.01,3.24ZM79.58,22.03c0,1.19.51,1.9,1.34,1.9s1.31-.71,1.31-1.89c0-1.3-.48-1.91-1.33-1.91-.8,0-1.32.59-1.32,1.9Z" style="fill:#255dab;"/><path d="M86.47,23.27c.13.49.53.77,1.18.77s.87-.23.87-.6c0-.4-.27-.56-1.16-.77-2.02-.5-2.35-1.12-2.35-2s.65-1.88,2.52-1.88,2.52,1.03,2.57,1.87h-1.63c-.06-.23-.21-.66-1.02-.66-.57,0-.75.25-.75.53,0,.31.19.46,1.2.69,2.07.48,2.36,1.19,2.36,2.1,0,1.03-.78,1.96-2.67,1.96s-2.66-.91-2.8-2.01h1.69Z" style="fill:#255dab;"/><path d="M91.4,16.38h1.72v1.53h-1.72v-1.53ZM91.4,18.93h1.72v6.21h-1.72v-6.21Z" style="fill:#255dab;"/><path d="M95.87,23.27c.13.49.53.77,1.18.77s.87-.23.87-.6c0-.4-.27-.56-1.16-.77-2.02-.5-2.35-1.12-2.35-2s.65-1.88,2.52-1.88,2.52,1.03,2.57,1.87h-1.63c-.06-.23-.21-.66-1.02-.66-.57,0-.75.25-.75.53,0,.31.19.46,1.2.69,2.07.48,2.36,1.19,2.36,2.1,0,1.03-.78,1.96-2.67,1.96s-2.66-.91-2.8-2.01h1.69Z" style="fill:#255dab;"/><path d="M105.85,25.14l-2.92-8.27h1.92l1.23,3.82c.37,1.16.66,2.14.85,2.98h.02c.17-.77.49-1.78.89-2.95l1.29-3.85h1.82l-3,8.27h-2.11Z" style="fill:#255dab;"/><path d="M111.69,16.38h1.72v1.53h-1.72v-1.53ZM111.69,18.93h1.72v6.21h-1.72v-6.21Z" style="fill:#255dab;"/><path d="M120.65,16.38v7.05c0,.57,0,1.14.01,1.71h-1.65c-.03-.19-.07-.51-.08-.65-.3.49-.83.79-1.76.79-1.57,0-2.57-1.26-2.57-3.2s1.06-3.3,2.82-3.3c.89,0,1.37.31,1.51.59v-3h1.72ZM116.36,22.04c0,1.21.47,1.87,1.31,1.87,1.18,0,1.32-.99,1.32-1.88,0-1.06-.15-1.86-1.27-1.86-.9,0-1.36.7-1.36,1.88Z" style="fill:#255dab;"/><path d="M123.54,22.4c0,.78.39,1.54,1.25,1.54.72,0,.92-.29,1.08-.66h1.72c-.22.76-.9,2.01-2.85,2.01s-2.93-1.53-2.93-3.16c0-1.95,1-3.34,2.99-3.34,2.13,0,2.86,1.54,2.86,3.09,0,.21,0,.35-.02.52h-4.1ZM125.94,21.35c-.01-.72-.3-1.33-1.14-1.33s-1.15.57-1.22,1.33h2.36Z" style="fill:#255dab;"/><path d="M134.72,22.02c0,1.88-1.12,3.26-3.09,3.26s-3.05-1.37-3.05-3.23,1.16-3.27,3.13-3.27c1.83,0,3.01,1.29,3.01,3.24ZM130.32,22.03c0,1.19.51,1.9,1.34,1.9s1.31-.71,1.31-1.89c0-1.3-.48-1.91-1.33-1.91-.8,0-1.32.59-1.32,1.9Z" style="fill:#255dab;"/><path d="M36.83,1v53.12H9.54c-4.71,0-8.54-3.83-8.54-8.54V9.54C1,4.83,4.83,1,9.54,1h27.29M37.83,0H9.54C4.27,0,0,4.27,0,9.54v36.04C0,50.85,4.27,55.12,9.54,55.12h28.29V0h0Z" style="fill:#3e72b8;"/><path d="M17.27,20.28v2.85c0,2.1-1.59,3.47-4.03,3.47s-4.24-1.33-4.24-3.53v-2.79h8.27ZM10.45,21.83v1.17c0,1.38,1.18,1.99,2.79,1.99,1.35,0,2.59-.57,2.59-1.98v-1.18h-5.38Z" style="fill:#fff;"/><path d="M13.17,35.11c-2.3,0-4.28-1.2-4.28-3.54s1.89-3.44,4.25-3.44,4.25,1.31,4.25,3.54c0,2.1-1.69,3.44-4.23,3.44ZM13.17,29.73c-1.61,0-2.84.62-2.84,1.89,0,1.38,1.33,1.87,2.81,1.87,1.56,0,2.79-.56,2.79-1.9s-1.15-1.87-2.76-1.87Z" style="fill:#fff;"/><path d="M27.49,10.76l7.04-2.29v.9c-1.97.6-5.42,1.71-6.23,1.88h0c.77.2,4.4,1.47,6.23,2.04v.88c-1.65.53-5.54,1.78-6.21,1.94h0c1.1.28,4.64,1.57,6.21,2.1v.86l-7.04-2.51v-.95c1.64-.53,5.39-1.73,6.1-1.9h0c-.98-.24-4.41-1.44-6.1-2.01v-.94Z" style="fill:#255dab;"/><path d="M29.78,20.81l-2.29-.99v-.86l7.04,3.03v1.04l-7.04,3.16v-.92l2.29-1.02v-3.44ZM30.42,24.01c1.98-.87,2.98-1.33,3.48-1.51h0c-.56-.22-1.78-.73-3.48-1.44v2.94Z" style="fill:#255dab;"/><path d="M33.89,28.28v-2.76h.64v6.4h-.64v-2.77h-6.4v-.87h6.4Z" style="fill:#255dab;"/><path d="M29.42,39.37c-1.15-.38-2.02-1.4-2.02-3.23,0-2.45,1.6-3.71,3.59-3.71s3.64,1.25,3.64,3.74c0,1.88-.89,2.95-2.07,3.21v-.86c.85-.35,1.44-1,1.44-2.4,0-1.98-1.52-2.79-2.99-2.79s-2.98.8-2.98,2.84c0,1.33.61,1.97,1.39,2.34v.86Z" style="fill:#255dab;"/><path d="M34.53,41.11v.86h-3.01v4.73h3.01v.86h-7.04v-.86h3.39v-4.73h-3.39v-.86h7.04Z" style="fill:#255dab;"/></g></svg>