<?xml version="1.0" encoding="UTF-8"?><svg id="uuid-c11a19d4-a730-454c-8177-51847760ca3a" xmlns="http://www.w3.org/2000/svg" viewBox="0 0 207.4 55.12"><g id="uuid-ceeee409-bbcc-4d69-834a-34cdcede053b"><rect x="1" y="1" width="205.4" height="53.12" rx="9.75" ry="9.75" style="fill:#1c305d;"/><path d="M196.65,2c4.83,0,8.75,3.93,8.75,8.75v33.62c0,4.83-3.93,8.75-8.75,8.75H10.75c-4.83,0-8.75-3.93-8.75-8.75V10.75C2,5.93,5.93,2,10.75,2h185.9M196.65,0H10.75C4.81,0,0,4.81,0,10.75v33.62c0,5.94,4.81,10.75,10.75,10.75h185.9c5.94,0,10.75-4.81,10.75-10.75V10.75C207.4,4.81,202.58,0,196.65,0h0Z" style="fill:#cb2027;"/><path d="M7.04,0h13.55v55.12H7.04C3.15,55.12,0,51.97,0,48.08V7.04C0,3.15,3.15,0,7.04,0Z" style="fill:#cb2027;"/><path d="M15.01,17.02v2.85c0,2.1-1.59,3.47-4.03,3.47s-4.24-1.33-4.24-3.53v-2.79h8.27ZM8.19,18.58v1.17c0,1.38,1.18,1.99,2.79,1.99,1.35,0,2.59-.57,2.59-1.98v-1.18h-5.38Z" style="fill:#fff;"/><path d="M15.01,26.7h-4.93c-1.59,0-2.06.71-2.06,1.49,0,.89.56,1.45,2.06,1.45h4.93v1.56h-4.84c-2.83,0-3.55-1.44-3.55-3.03s.75-3.02,3.51-3.02h4.87v1.56Z" style="fill:#fff;"/><path d="M10.31,38.31v-3.44h-2.1v3.8l-1.47-.18v-5.12h8.27v5.1h-1.47v-3.59h-1.77v3.44h-1.47Z" style="fill:#fff;"/><path d="M93.3,40.73l1.46-6.84c-.4.24-1.36.5-1.79.56l.15-.67c.8-.14,1.6-.54,2.03-.94h.59l-1.68,7.89h-.77Z" style="fill:#fff;"/><path d="M97.13,40.73l1.46-6.84c-.4.24-1.36.5-1.79.56l.15-.67c.8-.14,1.6-.54,2.03-.94h.59l-1.68,7.89h-.77Z" style="fill:#fff;"/><path d="M100.15,40.73l.34-1.64h.77l-.34,1.64h-.77ZM101.07,36.33l.35-1.63h.77l-.35,1.63h-.77Z" style="fill:#fff;"/><path d="M108.42,33.53h-3.32c-.22.8-.6,2.15-.77,2.63.44-.41.92-.66,1.72-.66,1.22,0,2.05.84,2.05,2.21,0,1.62-.98,3.15-2.95,3.15-1.34,0-2.24-.75-2.31-2.13h.76c.1.85.6,1.45,1.6,1.45,1.46,0,2.1-1.24,2.1-2.39,0-.92-.44-1.59-1.46-1.59s-1.42.47-1.81.99l-.65-.27c.25-.73.8-2.59,1.21-4.08h4.08l-.25.69Z" style="fill:#fff;"/><path d="M109.85,38.94c.12.81.5,1.24,1.39,1.24,1.57,0,2.2-1.86,2.49-3.43-.39.64-1.11,1.02-1.99,1.02-1.18,0-2.12-.76-2.12-2.23,0-1.35.96-2.82,2.74-2.82,1.51,0,2.23,1.08,2.23,2.68s-.52,5.45-3.43,5.45c-1.56,0-1.99-.99-2.06-1.91h.75ZM110.4,35.51c0,1.02.6,1.6,1.48,1.6,1.08,0,1.93-.77,1.93-1.91,0-.94-.37-1.8-1.54-1.8-1.24,0-1.87,1.08-1.87,2.11Z" style="fill:#fff;"/><path d="M120.23,32.36h2.58c1.63,0,2.48.93,2.48,2.17,0,1.77-1.31,2.64-3.16,2.64h-2.12l-.75,3.57h-.8l1.77-8.37ZM120.16,36.47h2c1.36,0,2.28-.55,2.28-1.9,0-1.07-.74-1.51-1.86-1.51h-1.69l-.72,3.41Z" style="fill:#fff;"/><path d="M133.43,37.01c.34-1.6.69-3.19.91-4.04h-.04c-.54,1.14-2.92,5.21-4.4,7.77h-.77c-.3-2.09-1.03-7.01-1.08-7.78h-.03c-.13.88-.54,2.86-.84,4.3l-.72,3.48h-.79l1.77-8.37h1.23c.41,2.65.97,6.32,1.05,7.34h.02c.33-.7,2.71-4.71,4.25-7.34h1.24l-1.77,8.37h-.81l.79-3.72Z" style="fill:#fff;"/><path d="M94.68,20.53l-.65,1.91h-1.76l2.81-8.27h2.25l2.93,8.27h-1.88l-.68-1.91h-3.02ZM97.32,19.06c-.59-1.75-.96-2.86-1.16-3.6h-.01c-.2.82-.62,2.11-1.09,3.6h2.26Z" style="fill:#fff;"/><path d="M102.48,20.57c.13.49.53.77,1.18.77s.87-.23.87-.6c0-.4-.27-.55-1.16-.77-2.02-.5-2.35-1.12-2.35-2s.65-1.88,2.52-1.88,2.52,1.03,2.57,1.87h-1.63c-.06-.23-.21-.66-1.02-.66-.57,0-.75.25-.75.53,0,.31.19.46,1.2.69,2.07.48,2.36,1.19,2.36,2.1,0,1.03-.78,1.96-2.67,1.96s-2.66-.91-2.8-2.01h1.69Z" style="fill:#fff;"/><path d="M108.68,20.57c.13.49.53.77,1.18.77s.87-.23.87-.6c0-.4-.27-.55-1.16-.77-2.02-.5-2.35-1.12-2.35-2s.65-1.88,2.52-1.88,2.52,1.03,2.57,1.87h-1.63c-.06-.23-.21-.66-1.02-.66-.57,0-.75.25-.75.53,0,.31.19.46,1.2.69,2.07.48,2.36,1.19,2.36,2.1,0,1.03-.78,1.96-2.67,1.96s-2.66-.91-2.8-2.01h1.69Z" style="fill:#fff;"/><path d="M113.6,13.68h1.72v1.53h-1.72v-1.53ZM113.6,16.23h1.72v6.21h-1.72v-6.21Z" style="fill:#fff;"/><path d="M122.52,21.68c0,1.99-.74,3.25-3.09,3.25s-2.71-1.27-2.77-1.97h1.75c.12.43.44.72,1.1.72,1.12,0,1.33-.68,1.33-1.9v-.3c-.32.54-.84.87-1.75.87-1.64,0-2.57-1.34-2.57-3.01,0-1.94,1.16-3.27,2.71-3.27,1.06,0,1.51.5,1.6.79.01-.17.06-.55.07-.65h1.63c-.01.55-.01,1.18-.01,1.78v3.67ZM118.28,19.28c0,1.07.53,1.7,1.29,1.7,1.03,0,1.31-.71,1.31-1.75s-.18-1.76-1.27-1.76c-.75,0-1.33.58-1.33,1.82Z" style="fill:#fff;"/><path d="M124.05,17.79c0-.53,0-1.1-.01-1.56h1.66c.03.16.06.59.07.79.21-.39.71-.93,1.8-.93,1.25,0,2.06.84,2.06,2.4v3.95h-1.72v-3.76c0-.7-.23-1.2-.99-1.2s-1.15.41-1.15,1.5v3.46h-1.72v-4.64Z" style="fill:#fff;"/><path d="M131.16,17.83c0-.54,0-1.07-.01-1.6h1.64c.02.15.06.5.07.74.31-.46.81-.88,1.73-.88s1.38.46,1.6.94c.36-.51.9-.94,1.91-.94,1.08,0,1.97.66,1.97,2.28v4.07h-1.68v-3.86c0-.56-.2-1.11-.91-1.11s-1.02.47-1.02,1.42v3.55h-1.69v-3.8c0-.64-.16-1.16-.89-1.16s-1.03.43-1.03,1.49v3.47h-1.7v-4.61Z" style="fill:#fff;"/><path d="M142.98,19.7c0,.78.39,1.54,1.25,1.54.72,0,.92-.29,1.08-.66h1.72c-.22.76-.9,2.01-2.85,2.01s-2.93-1.53-2.93-3.16c0-1.95,1-3.34,2.99-3.34,2.13,0,2.86,1.54,2.86,3.09,0,.21,0,.35-.02.52h-4.1ZM145.38,18.64c-.01-.72-.3-1.33-1.14-1.33s-1.15.57-1.22,1.33h2.36Z" style="fill:#fff;"/><path d="M148.32,17.79c0-.53,0-1.1-.01-1.56h1.66c.03.16.06.59.07.79.21-.39.71-.93,1.8-.93,1.25,0,2.06.84,2.06,2.4v3.95h-1.72v-3.76c0-.7-.23-1.2-.99-1.2s-1.15.41-1.15,1.5v3.46h-1.72v-4.64Z" style="fill:#fff;"/><path d="M154.7,16.23h.96v-1.68h1.72v1.68h1.22v1.29h-1.22v3.06c0,.47.14.65.66.65.1,0,.26,0,.39-.02v1.18c-.34.12-.81.12-1.16.12-1.21,0-1.61-.65-1.61-1.73v-3.27h-.96v-1.29Z" style="fill:#fff;"/><path d="M167.18,22.44l-1.77-2.91h-.01l-1.81,2.91h-1.93l2.75-4.16-2.67-4.1h2.08l1.67,2.74h.01l1.73-2.74h1.9l-2.66,3.94,2.79,4.33h-2.07Z" style="fill:#fff;"/><rect x="54.77" y="31.97" width="27.77" height="9" style="fill:none;"/><path d="M55.76,32.46h3.28c2.41,0,3.98,1.59,3.98,4.03s-1.53,4.24-4.06,4.24h-3.2v-8.27ZM57.55,39.29h1.34c1.59,0,2.29-1.18,2.29-2.79,0-1.35-.66-2.59-2.28-2.59h-1.35v5.38Z" style="fill:#fff;"/><path d="M70.28,37.16h-3.95v2.1h4.36l-.21,1.47h-5.89v-8.27h5.86v1.46h-4.13v1.77h3.95v1.47Z" style="fill:#fff;"/><path d="M79.12,38.18c-.33,1.54-1.5,2.67-3.57,2.67-2.62,0-3.86-1.86-3.86-4.21s1.28-4.3,3.95-4.3c2.2,0,3.27,1.29,3.47,2.67h-1.79c-.17-.64-.62-1.27-1.74-1.27-1.47,0-2.04,1.33-2.04,2.83,0,1.4.49,2.87,2.09,2.87,1.17,0,1.54-.78,1.69-1.26h1.8Z" style="fill:#fff;"/><path d="M55.87,30.4v-13.21c-.72.24-2.14.37-2.85.3v-3.98c2.15-.41,3.59-1.61,4.29-2.6h4.09v19.49h-5.54Z" style="fill:#fff;"/><path d="M81.96,20.48c0,5.83-2.24,10.33-8.08,10.33s-8.14-4.56-8.14-10.18,2.49-10.12,8.14-10.12,8.08,4.61,8.08,9.98ZM71.43,20.56c0,3.13.4,5.95,2.46,5.95s2.39-2.66,2.39-6.02c0-2.85-.26-5.71-2.35-5.71s-2.49,2.65-2.49,5.78Z" style="fill:#fff;"/></g></svg>