<?xml version="1.0" encoding="UTF-8"?><svg id="uuid-bd4edf58-05a1-4af4-a695-efaafa60a41b" xmlns="http://www.w3.org/2000/svg" viewBox="0 0 207.4 55.12"><g id="uuid-bdaa9949-b3c4-42f3-99bc-e451557b0d6f"><path d="M196.65,2c4.83,0,8.75,3.93,8.75,8.75v33.62c0,4.83-3.93,8.75-8.75,8.75H10.75c-4.83,0-8.75-3.93-8.75-8.75V10.75C2,5.93,5.93,2,10.75,2h185.9M196.65,0H10.75C4.81,0,0,4.81,0,10.75v33.62C0,50.31,4.81,55.12,10.75,55.12h185.9c5.94,0,10.75-4.81,10.75-10.75V10.75c0-5.94-4.81-10.75-10.75-10.75h0Z" style="fill:#3e72b8;"/><path d="M24.81,55.12H7.73c-4.27,0-7.73-3.46-7.73-7.73V7.72C0,3.46,3.46,0,7.72,0h17.08v55.12Z" style="fill:#3e72b8;"/><rect x="52.9" y="31.81" width="122.26" height="12.06" style="fill:none;"/><path d="M61.08,36.91c.34-1.6.69-3.19.91-4.04h-.04c-.54,1.14-2.92,5.21-4.4,7.77h-.77c-.3-2.09-1.03-7.02-1.08-7.78h-.03c-.13.88-.54,2.86-.84,4.3l-.72,3.48h-.79l1.77-8.37h1.23c.41,2.65.97,6.32,1.05,7.34h.02c.33-.7,2.71-4.72,4.25-7.34h1.24l-1.77,8.37h-.81l.79-3.72Z" style="fill:#255dab;"/><path d="M68.63,36.94c0,1.66-.93,3.82-3.16,3.82-1.37,0-2.2-.89-2.2-2.41,0-1.69,1.02-3.87,3.15-3.87,1.35,0,2.21.92,2.21,2.46ZM64.06,38.34c0,1.07.53,1.75,1.51,1.75,1.57,0,2.28-1.78,2.28-3.14,0-1.11-.48-1.79-1.5-1.79-1.51,0-2.28,1.77-2.28,3.19Z" style="fill:#255dab;"/><path d="M76.01,31.81l-1.51,7.12c-.12.57-.24,1.16-.34,1.7h-.74c.01-.16.1-.63.18-1.05-.41.67-1.01,1.17-2.09,1.17-1.3,0-1.93-1-1.93-2.33,0-1.75,1.03-3.94,3.14-3.94,1.08,0,1.61.62,1.73,1.05l.79-3.72h.76ZM70.39,38.36c0,1.17.53,1.7,1.37,1.7,1.36,0,2.06-1.24,2.34-2.63.28-1.35-.13-2.25-1.4-2.25-1.52,0-2.31,1.76-2.31,3.18Z" style="fill:#255dab;"/><path d="M80.87,39.02c-.12.54-.23,1.13-.31,1.62h-.74c.01-.2.11-.76.19-1.12-.39.7-1.09,1.24-2.07,1.24-1.09,0-1.83-.59-1.47-2.25l.85-3.9h.75l-.82,3.84c-.18.83-.17,1.64.92,1.64,1.02,0,1.89-.76,2.28-2.59l.62-2.89h.76l-.94,4.42Z" style="fill:#255dab;"/><path d="M82.42,40.64l1.87-8.82h.76l-1.87,8.82h-.76Z" style="fill:#255dab;"/><path d="M86.03,37.69c-.03.28-.06.43-.06.66,0,1.16.57,1.74,1.47,1.74.97,0,1.42-.54,1.72-1.1h.79c-.42.95-1.14,1.77-2.62,1.77s-2.14-1-2.14-2.37c0-1.74.95-3.91,3.11-3.91,1.56,0,2.07,1.05,2.07,2.09,0,.34-.03.69-.15,1.11h-4.21ZM89.6,37.06c.03-.17.04-.34.04-.5,0-.93-.45-1.42-1.38-1.42-.99,0-1.74.7-2.08,1.92h3.42Z" style="fill:#255dab;"/><path d="M99.22,34.4c-.07-.57-.4-1.12-1.34-1.12-1.46,0-2.15,1.6-2.47,3.12.36-.47,1.04-.99,2.05-.99,1.38,0,2.11.96,2.11,2.29,0,1.62-1.03,3.05-2.77,3.05-1.56,0-2.32-1.12-2.32-2.75,0-1.99.89-5.4,3.45-5.4,1.59,0,2.02,1.04,2.06,1.8h-.76ZM98.76,37.74c0-.77-.3-1.63-1.49-1.63s-2.03.86-2.03,2.07c0,.89.43,1.9,1.6,1.9,1.25,0,1.92-1.09,1.92-2.34Z" style="fill:#255dab;"/><rect x="51.78" y="16.38" width="136.75" height="12.06" style="fill:none;"/><path d="M52.76,16.87h3.42c1.76,0,2.95.99,2.95,2.56,0,1.8-1.36,2.62-2.99,2.62h-1.59v3.09h-1.79v-8.27ZM54.55,20.63h1.36c.83,0,1.41-.32,1.41-1.16s-.62-1.17-1.37-1.17h-1.4v2.33Z" style="fill:#255dab;"/><path d="M60.22,20.61c0-.62,0-1.16-.01-1.68h1.69c.02.14.05.76.05,1.09.27-.71.94-1.23,1.99-1.23v1.64c-1.25-.03-1.99.3-1.99,2.01v2.71h-1.72v-4.52Z" style="fill:#255dab;"/><path d="M66.21,22.4c0,.78.39,1.54,1.25,1.54.72,0,.92-.29,1.08-.66h1.72c-.22.76-.9,2.01-2.85,2.01s-2.93-1.53-2.93-3.16c0-1.95,1-3.34,2.99-3.34,2.13,0,2.86,1.54,2.86,3.09,0,.21,0,.35-.02.52h-4.1ZM68.6,21.35c-.01-.72-.3-1.33-1.14-1.33s-1.15.57-1.22,1.33h2.36Z" style="fill:#255dab;"/><path d="M74.98,21.3v1.5h-3.34v-1.5h3.34Z" style="fill:#255dab;"/><path d="M76.49,16.87h1.79v6.8h4.12l-.2,1.47h-5.7v-8.27Z" style="fill:#255dab;"/><path d="M84.75,22.4c0,.78.39,1.54,1.25,1.54.72,0,.92-.29,1.08-.66h1.72c-.22.76-.9,2.01-2.85,2.01s-2.93-1.53-2.93-3.16c0-1.95,1-3.34,2.99-3.34,2.13,0,2.86,1.54,2.86,3.09,0,.21,0,.35-.02.52h-4.1ZM87.14,21.35c-.01-.72-.3-1.33-1.14-1.33s-1.15.57-1.22,1.33h2.36Z" style="fill:#255dab;"/><path d="M95.52,23.13c-.21,1.03-.94,2.15-2.79,2.15s-2.93-1.34-2.93-3.2,1.12-3.29,3.01-3.29c2.09,0,2.67,1.5,2.71,2.2h-1.68c-.11-.51-.39-.86-1.06-.86-.79,0-1.23.69-1.23,1.89,0,1.32.47,1.92,1.22,1.92.59,0,.91-.35,1.06-.82h1.69Z" style="fill:#255dab;"/><path d="M96.11,18.93h.96v-1.68h1.72v1.68h1.22v1.29h-1.22v3.06c0,.47.14.65.66.65.1,0,.26,0,.39-.02v1.18c-.34.12-.81.12-1.16.12-1.21,0-1.61-.65-1.61-1.73v-3.27h-.96v-1.29Z" style="fill:#255dab;"/><path d="M106.4,23.33c0,.6,0,1.25.01,1.8h-1.68c-.02-.17-.04-.5-.05-.72-.37.62-.92.86-1.71.86-1.26,0-2.07-.77-2.07-2.31v-4.04h1.72v3.7c0,.69.21,1.25.96,1.25.78,0,1.11-.42,1.11-1.65v-3.3h1.72v4.4Z" style="fill:#255dab;"/><path d="M107.96,20.61c0-.62,0-1.16-.01-1.68h1.69c.02.14.05.76.05,1.09.27-.71.94-1.23,1.99-1.23v1.64c-1.25-.03-1.99.3-1.99,2.01v2.71h-1.72v-4.52Z" style="fill:#255dab;"/><path d="M113.94,22.4c0,.78.39,1.54,1.25,1.54.72,0,.92-.29,1.08-.66h1.72c-.22.76-.9,2.01-2.85,2.01s-2.93-1.53-2.93-3.16c0-1.95,1-3.34,2.99-3.34,2.13,0,2.86,1.54,2.86,3.09,0,.21,0,.35-.02.52h-4.1ZM116.34,21.35c-.01-.72-.3-1.33-1.14-1.33s-1.15.57-1.22,1.33h2.36Z" style="fill:#255dab;"/><path d="M122.24,16.87h3.42c1.76,0,2.95.99,2.95,2.56,0,1.8-1.36,2.62-2.99,2.62h-1.59v3.09h-1.79v-8.27ZM124.03,20.63h1.36c.83,0,1.41-.32,1.41-1.16s-.62-1.17-1.37-1.17h-1.4v2.33Z" style="fill:#255dab;"/><path d="M129.7,20.61c0-.62,0-1.16-.01-1.68h1.69c.02.14.05.76.05,1.09.27-.71.94-1.23,1.99-1.23v1.64c-1.25-.03-1.99.3-1.99,2.01v2.71h-1.72v-4.52Z" style="fill:#255dab;"/><path d="M135.69,22.4c0,.78.39,1.54,1.25,1.54.71,0,.92-.29,1.08-.66h1.72c-.22.76-.9,2.01-2.85,2.01s-2.93-1.53-2.93-3.16c0-1.95,1-3.34,2.99-3.34,2.13,0,2.86,1.54,2.86,3.09,0,.21,0,.35-.02.52h-4.1ZM138.08,21.35c-.01-.72-.3-1.33-1.14-1.33s-1.15.57-1.22,1.33h2.36Z" style="fill:#255dab;"/><path d="M142.72,24.59v2.93h-1.71v-7.09c0-.5,0-1-.01-1.5h1.67c.02.16.06.55.06.77.27-.46.82-.92,1.8-.92,1.39,0,2.47,1.17,2.47,3.09,0,2.19-1.2,3.4-2.71,3.4-.88,0-1.33-.33-1.57-.69ZM145.26,21.94c0-1.14-.46-1.78-1.28-1.78-.98,0-1.32.63-1.32,1.88,0,1.18.32,1.87,1.25,1.87s1.35-.71,1.35-1.97Z" style="fill:#255dab;"/><path d="M148.85,16.83l1.04,1.72h-.74l-1.46-1.72h1.16Z" style="fill:#255dab;"/><path d="M36.83,1v53.12H9.54c-4.71,0-8.54-3.83-8.54-8.54V9.54C1,4.83,4.83,1,9.54,1h27.29M37.83,0H9.54C4.27,0,0,4.27,0,9.54v36.04C0,50.85,4.27,55.12,9.54,55.12h28.29V0h0Z" style="fill:#3e72b8;"/><path d="M17.27,20.28v2.85c0,2.1-1.59,3.47-4.03,3.47s-4.24-1.33-4.24-3.53v-2.79h8.27ZM10.45,21.83v1.17c0,1.38,1.18,1.99,2.79,1.99,1.35,0,2.59-.57,2.59-1.98v-1.18h-5.38Z" style="fill:#fff;"/><path d="M13.17,35.11c-2.3,0-4.28-1.2-4.28-3.54s1.89-3.44,4.25-3.44,4.25,1.31,4.25,3.54c0,2.1-1.69,3.44-4.23,3.44ZM13.17,29.73c-1.61,0-2.84.62-2.84,1.89,0,1.38,1.33,1.87,2.81,1.87,1.56,0,2.79-.56,2.79-1.9s-1.15-1.87-2.76-1.87Z" style="fill:#fff;"/><path d="M34.53,14.8v3.08c0,1.58-.74,2.66-2,2.66s-2.05-1.1-2.05-2.73v-2.13h-2.99v-.87h7.04ZM31.11,15.66v2.14c0,1.26.54,1.83,1.4,1.83.91,0,1.39-.72,1.39-1.78v-2.19h-2.79Z" style="fill:#255dab;"/><path d="M30.69,23.04h-3.2v-.86h7.04v3.12c0,1.68-.76,2.57-1.87,2.57-.9,0-1.47-.63-1.65-1.5-.16.78-.62,1.36-1.82,1.36h-.29c-.49,0-1.13-.04-1.41.11v-.85c.3-.15.86-.13,1.49-.13h.17c1.09,0,1.55-.38,1.55-1.93v-1.9ZM31.32,23.04v1.93c0,1.38.44,2.01,1.3,2.01.81,0,1.27-.63,1.27-1.86v-2.09h-2.58Z" style="fill:#255dab;"/><path d="M30.87,34.91v-4.22h-2.75v4.63l-.64-.12v-5.36h7.04v5.28h-.64v-4.43h-2.38v4.22h-.64Z" style="fill:#255dab;"/><path d="M34.53,36.91v3.08c0,1.58-.74,2.66-2,2.66s-2.05-1.1-2.05-2.73v-2.13h-2.99v-.87h7.04ZM31.11,37.78v2.14c0,1.26.54,1.83,1.4,1.83.91,0,1.39-.72,1.39-1.78v-2.19h-2.79Z" style="fill:#255dab;"/></g></svg>