<?xml version="1.0" encoding="UTF-8"?><svg id="uuid-892602e2-f90a-48cf-b804-10f5716f3425" xmlns="http://www.w3.org/2000/svg" viewBox="0 0 207.4 55.12"><g id="uuid-62ca1494-a171-4309-b589-b3bd9f412d7d"><rect x="1" y="1" width="205.4" height="53.12" rx="9.75" ry="9.75" style="fill:#1c305d;"/><path d="M196.65,2c4.83,0,8.75,3.93,8.75,8.75v33.62c0,4.83-3.93,8.75-8.75,8.75H10.75c-4.83,0-8.75-3.93-8.75-8.75V10.75C2,5.93,5.93,2,10.75,2h185.9M196.65,0H10.75C4.81,0,0,4.81,0,10.75v33.62c0,5.94,4.81,10.75,10.75,10.75h185.9c5.94,0,10.75-4.81,10.75-10.75V10.75C207.4,4.81,202.58,0,196.65,0h0Z" style="fill:#1c305d;"/><path d="M23.78,55.12H7.57C3.39,55.12,0,51.73,0,47.55V7.56C0,3.39,3.39,0,7.56,0h16.22v55.12Z" style="fill:#cb2027;"/><rect x="52.9" y="31.81" width="122.26" height="12.01" style="fill:none;"/><path d="M54.13,38.85c.12.81.5,1.24,1.39,1.24,1.57,0,2.2-1.85,2.49-3.43-.39.64-1.11,1.02-1.99,1.02-1.18,0-2.12-.76-2.12-2.23,0-1.35.96-2.82,2.74-2.82,1.51,0,2.23,1.08,2.23,2.68s-.52,5.45-3.43,5.45c-1.56,0-1.99-.99-2.06-1.91h.75ZM54.69,35.41c0,1.02.6,1.6,1.48,1.6,1.08,0,1.93-.77,1.93-1.91,0-.94-.37-1.8-1.54-1.8-1.24,0-1.87,1.08-1.87,2.11Z" style="fill:#fff;"/><path d="M59.5,40.64l.34-1.64h.77l-.34,1.64h-.77ZM60.42,36.24l.35-1.63h.77l-.35,1.63h-.77Z" style="fill:#fff;"/><path d="M62.95,34.54c.22-.85.88-1.92,2.44-1.92,1.45,0,2.06.85,2.06,1.81,0,1.06-.63,1.68-1.4,1.91v.03c.56.23,1.17.72,1.17,1.78,0,1.44-1,2.61-2.82,2.61-1.7,0-2.35-1.05-2.38-2.16h.78c.05.7.45,1.48,1.69,1.48s1.94-.9,1.94-1.87c0-1.03-.66-1.5-1.78-1.5h-.47l.13-.69h.44c1.23,0,1.92-.45,1.92-1.52,0-.77-.49-1.19-1.35-1.19s-1.33.54-1.6,1.25h-.77Z" style="fill:#fff;"/><path d="M73.89,33.43h-3.32c-.22.8-.6,2.15-.77,2.63.44-.41.92-.66,1.72-.66,1.22,0,2.05.84,2.05,2.21,0,1.62-.98,3.15-2.95,3.15-1.34,0-2.24-.75-2.31-2.13h.76c.1.85.6,1.45,1.6,1.45,1.46,0,2.1-1.24,2.1-2.39,0-.93-.44-1.59-1.46-1.59s-1.42.47-1.81.99l-.65-.27c.25-.73.8-2.59,1.21-4.08h4.08l-.25.69Z" style="fill:#fff;"/><path d="M79.22,37.87l-1.52,2.77h-.86l4.69-8.37h.94l1.32,8.37h-.81l-.43-2.77h-3.33ZM82.45,37.16c-.33-2.08-.54-3.48-.6-4.12h-.01c-.36.73-1.16,2.2-2.23,4.12h2.85Z" style="fill:#fff;"/><path d="M92.88,36.91c.34-1.6.69-3.19.91-4.04h-.04c-.54,1.14-2.92,5.21-4.4,7.77h-.77c-.3-2.09-1.03-7.02-1.08-7.78h-.03c-.13.88-.54,2.86-.84,4.3l-.72,3.48h-.79l1.77-8.37h1.23c.41,2.65.97,6.32,1.05,7.34h.02c.33-.7,2.71-4.72,4.25-7.34h1.24l-1.77,8.37h-.81l.79-3.72Z" style="fill:#fff;"/><path d="M101.41,37.21l-.15.73h-2.96l.15-.73h2.96Z" style="fill:#fff;"/><path d="M106.26,40.64l1.46-6.84c-.4.24-1.36.5-1.79.56l.15-.67c.8-.14,1.6-.54,2.03-.94h.59l-1.68,7.89h-.77Z" style="fill:#fff;"/><path d="M115.11,35.1c0,2.08-.81,5.66-3.43,5.66-1.37,0-2.04-.99-2.04-2.61,0-2.02.91-5.53,3.44-5.53,1.52,0,2.02,1.17,2.02,2.48ZM110.44,38.14c0,1.19.4,1.94,1.35,1.94,1.83,0,2.53-3.26,2.53-4.94,0-1.08-.32-1.83-1.34-1.83-1.8,0-2.54,3.17-2.54,4.83Z" style="fill:#fff;"/><path d="M115.79,40.64l.34-1.64h.77l-.34,1.64h-.77ZM116.71,36.24l.35-1.63h.77l-.35,1.63h-.77Z" style="fill:#fff;"/><path d="M119.24,34.54c.22-.85.88-1.92,2.44-1.92,1.45,0,2.06.85,2.06,1.81,0,1.06-.63,1.68-1.4,1.91v.03c.56.23,1.17.72,1.17,1.78,0,1.44-1,2.61-2.82,2.61-1.7,0-2.35-1.05-2.38-2.16h.78c.05.7.45,1.48,1.69,1.48s1.94-.9,1.94-1.87c0-1.03-.66-1.5-1.78-1.5h-.47l.13-.69h.44c1.23,0,1.92-.45,1.92-1.52,0-.77-.49-1.19-1.35-1.19s-1.33.54-1.6,1.25h-.77Z" style="fill:#fff;"/><path d="M130.18,33.43h-3.32c-.22.8-.6,2.15-.77,2.63.44-.41.92-.66,1.72-.66,1.22,0,2.05.84,2.05,2.21,0,1.62-.98,3.15-2.95,3.15-1.34,0-2.24-.75-2.31-2.13h.76c.1.85.6,1.45,1.6,1.45,1.46,0,2.1-1.24,2.1-2.39,0-.93-.44-1.59-1.46-1.59s-1.42.47-1.81.99l-.65-.27c.25-.73.8-2.59,1.21-4.08h4.08l-.25.69Z" style="fill:#fff;"/><path d="M135.51,37.87l-1.52,2.77h-.86l4.69-8.37h.94l1.32,8.37h-.81l-.43-2.77h-3.33ZM138.74,37.16c-.33-2.08-.54-3.48-.6-4.12h-.01c-.36.73-1.16,2.2-2.23,4.12h2.85Z" style="fill:#fff;"/><path d="M149.17,36.91c.34-1.6.69-3.19.91-4.04h-.04c-.54,1.14-2.92,5.21-4.4,7.77h-.77c-.3-2.09-1.03-7.02-1.08-7.78h-.03c-.13.88-.54,2.86-.84,4.3l-.72,3.48h-.79l1.77-8.37h1.23c.41,2.65.97,6.32,1.05,7.34h.02c.33-.7,2.71-4.72,4.25-7.34h1.24l-1.77,8.37h-.81l.79-3.72Z" style="fill:#fff;"/><rect x="51.78" y="16.38" width="128.15" height="11.94" style="fill:none;"/><path d="M58.45,21.57h-3.95v2.1h4.36l-.21,1.47h-5.89v-8.27h5.86v1.47h-4.13v1.77h3.95v1.47Z" style="fill:#fff;"/><path d="M65.14,25.14l-1.77-2.91h-.01l-1.81,2.91h-1.93l2.75-4.16-2.67-4.1h2.08l1.67,2.74h.01l1.73-2.74h1.9l-2.66,3.94,2.79,4.33h-2.07Z" style="fill:#fff;"/><path d="M69.69,23.23l-.65,1.91h-1.76l2.81-8.27h2.25l2.93,8.27h-1.88l-.68-1.91h-3.02ZM72.32,21.76c-.59-1.75-.96-2.86-1.16-3.6h-.01c-.2.82-.62,2.11-1.09,3.6h2.26Z" style="fill:#fff;"/><path d="M83.27,22.04c0-1.41.02-2.99.06-3.93h-.06c-.39,1.69-1.22,4.44-2.01,7.03h-1.52c-.6-2.26-1.46-5.4-1.82-7.05h-.06c.07.97.1,2.67.1,4.09v2.96h-1.63v-8.27h2.66c.64,2.16,1.37,4.87,1.62,6.1h.01c.2-1.09,1.11-3.98,1.8-6.1h2.56v8.27h-1.72v-3.1Z" style="fill:#fff;"/><path d="M91.82,25.14l-2.92-8.27h1.92l1.23,3.82c.37,1.16.66,2.14.85,2.98h.02c.17-.77.49-1.78.89-2.95l1.29-3.85h1.82l-3,8.27h-2.11Z" style="fill:#fff;"/><path d="M12.45,17.7v-3.44h-2.1v3.8l-1.47-.18v-5.12h8.27v5.1h-1.47v-3.59h-1.77v3.44h-1.47Z" style="fill:#fff;"/><path d="M8.88,24.04l2.91-1.54h0s-2.91-1.59-2.91-1.59v-1.68l4.16,2.39,4.1-2.33v1.81l-2.74,1.45h0s2.74,1.52,2.74,1.52v1.65l-3.94-2.32-4.33,2.43v-1.8Z" style="fill:#fff;"/><path d="M10.79,28.52l-1.91-.56v-1.53l8.27,2.44v1.95l-8.27,2.55v-1.64l1.91-.59v-2.63ZM12.26,30.81c1.75-.51,2.86-.84,3.6-1.01h0c-.82-.19-2.11-.55-3.6-.96v1.97Z" style="fill:#fff;"/><path d="M11.98,40.86c1.41,0,2.99.02,3.93.05v-.05c-1.69-.34-4.44-1.06-7.03-1.75v-1.33c2.26-.52,5.4-1.27,7.05-1.58v-.05c-.97.06-2.67.09-4.09.09h-2.96v-1.42h8.27v2.32c-2.16.56-4.87,1.19-6.1,1.41h0c1.09.19,3.98.98,6.1,1.58v2.23h-8.27v-1.5h3.1Z" style="fill:#fff;"/></g></svg>