<?xml version="1.0" encoding="UTF-8"?><svg id="uuid-8ea2d458-6b87-4487-a7cd-89c7ad245064" xmlns="http://www.w3.org/2000/svg" viewBox="0 0 207.4 55.12"><g id="uuid-9d1aac7a-4b92-4047-967f-c98ff8cba67d"><rect x="1" y="1" width="205.4" height="53.12" rx="9.75" ry="9.75" style="fill:#d1d8ee;"/><path d="M196.65,2c4.83,0,8.75,3.93,8.75,8.75v33.62c0,4.83-3.93,8.75-8.75,8.75H10.75c-4.83,0-8.75-3.93-8.75-8.75V10.75C2,5.93,5.93,2,10.75,2h185.9M196.65,0H10.75C4.81,0,0,4.81,0,10.75v33.62C0,50.31,4.81,55.12,10.75,55.12h185.9c5.94,0,10.75-4.81,10.75-10.75V10.75C207.4,4.81,202.58,0,196.65,0h0Z" style="fill:#3e72b8;"/><path d="M23.78,55.12H7.57c-4.18,0-7.57-3.39-7.57-7.57V7.56C0,3.39,3.39,0,7.56,0h16.22v55.12Z" style="fill:#3e72b8;"/><path d="M54.13,38.85c.12.81.5,1.24,1.39,1.24,1.57,0,2.2-1.85,2.49-3.43-.39.64-1.11,1.02-1.99,1.02-1.18,0-2.12-.76-2.12-2.23,0-1.35.96-2.82,2.74-2.82,1.51,0,2.23,1.08,2.23,2.68s-.52,5.45-3.43,5.45c-1.56,0-1.99-.99-2.06-1.91h.75ZM54.69,35.41c0,1.02.6,1.6,1.48,1.6,1.08,0,1.93-.77,1.93-1.91,0-.94-.37-1.8-1.54-1.8-1.24,0-1.87,1.08-1.87,2.11Z" style="fill:#3e72b8;"/><path d="M59.5,40.64l.34-1.64h.77l-.34,1.64h-.77ZM60.42,36.24l.35-1.63h.77l-.35,1.63h-.77Z" style="fill:#3e72b8;"/><path d="M62.95,34.54c.22-.85.88-1.92,2.44-1.92,1.45,0,2.06.85,2.06,1.81,0,1.06-.63,1.68-1.4,1.91v.03c.56.23,1.17.72,1.17,1.78,0,1.44-1,2.61-2.82,2.61-1.7,0-2.35-1.05-2.38-2.16h.78c.05.7.45,1.48,1.69,1.48s1.94-.9,1.94-1.87c0-1.03-.66-1.5-1.78-1.5h-.47l.13-.69h.44c1.23,0,1.92-.45,1.92-1.52,0-.77-.49-1.19-1.35-1.19s-1.33.54-1.6,1.25h-.77Z" style="fill:#3e72b8;"/><path d="M73.89,33.43h-3.32c-.22.8-.6,2.15-.77,2.63.44-.41.92-.66,1.72-.66,1.22,0,2.05.84,2.05,2.21,0,1.62-.98,3.15-2.95,3.15-1.34,0-2.24-.75-2.31-2.13h.76c.1.85.6,1.45,1.6,1.45,1.46,0,2.1-1.24,2.1-2.39,0-.93-.44-1.59-1.46-1.59s-1.42.47-1.81.99l-.65-.27c.25-.73.8-2.59,1.21-4.08h4.08l-.25.69Z" style="fill:#3e72b8;"/><path d="M79.22,37.87l-1.52,2.77h-.86l4.69-8.37h.94l1.32,8.37h-.81l-.43-2.77h-3.33ZM82.45,37.16c-.33-2.08-.54-3.48-.6-4.12h-.01c-.36.73-1.16,2.2-2.23,4.12h2.85Z" style="fill:#3e72b8;"/><path d="M92.88,36.91c.34-1.6.69-3.19.91-4.04h-.04c-.54,1.14-2.92,5.21-4.4,7.77h-.77c-.3-2.09-1.03-7.02-1.08-7.78h-.03c-.13.88-.54,2.86-.84,4.3l-.72,3.48h-.79l1.77-8.37h1.23c.41,2.65.97,6.32,1.05,7.34h.02c.33-.7,2.71-4.72,4.25-7.34h1.24l-1.77,8.37h-.81l.79-3.72Z" style="fill:#3e72b8;"/><path d="M101.41,37.21l-.15.73h-2.96l.15-.73h2.96Z" style="fill:#3e72b8;"/><path d="M106.26,40.64l1.46-6.84c-.4.24-1.36.5-1.79.56l.15-.67c.8-.14,1.6-.54,2.03-.94h.59l-1.68,7.89h-.77Z" style="fill:#3e72b8;"/><path d="M108.97,40.64l.03-.16c.29-1.28,1.26-2.26,2.88-3.37,1.4-.96,2.1-1.24,2.1-2.47,0-.76-.42-1.35-1.38-1.35s-1.52.54-1.86,1.66h-.75c.31-1.33,1.12-2.34,2.68-2.34,1.45,0,2.1.94,2.1,2,0,1.54-.89,1.98-2.43,3.03-1.17.79-1.97,1.39-2.34,2.32h4.28l-.25.68h-5.07Z" style="fill:#3e72b8;"/><path d="M115.75,40.64l.34-1.64h.77l-.34,1.64h-.77ZM116.68,36.24l.35-1.63h.77l-.35,1.63h-.77Z" style="fill:#3e72b8;"/><path d="M119.2,34.54c.22-.85.88-1.92,2.44-1.92,1.45,0,2.06.85,2.06,1.81,0,1.06-.63,1.68-1.4,1.91v.03c.56.23,1.17.72,1.17,1.78,0,1.44-1,2.61-2.82,2.61-1.7,0-2.35-1.05-2.38-2.16h.78c.05.7.45,1.48,1.69,1.48s1.94-.9,1.94-1.87c0-1.03-.66-1.5-1.78-1.5h-.47l.13-.69h.44c1.23,0,1.92-.45,1.92-1.52,0-.77-.49-1.19-1.35-1.19s-1.33.54-1.6,1.25h-.77Z" style="fill:#3e72b8;"/><path d="M130.15,33.43h-3.32c-.22.8-.6,2.15-.77,2.63.44-.41.92-.66,1.72-.66,1.22,0,2.05.84,2.05,2.21,0,1.62-.98,3.15-2.95,3.15-1.34,0-2.24-.75-2.31-2.13h.76c.1.85.6,1.45,1.6,1.45,1.46,0,2.1-1.24,2.1-2.39,0-.93-.44-1.59-1.46-1.59s-1.42.47-1.81.99l-.65-.27c.25-.73.8-2.59,1.21-4.08h4.08l-.25.69Z" style="fill:#3e72b8;"/><path d="M135.47,37.87l-1.52,2.77h-.86l4.69-8.37h.94l1.32,8.37h-.81l-.43-2.77h-3.33ZM138.71,37.16c-.33-2.08-.54-3.48-.6-4.12h-.01c-.36.73-1.16,2.2-2.23,4.12h2.85Z" style="fill:#3e72b8;"/><path d="M149.13,36.91c.34-1.6.69-3.19.91-4.04h-.04c-.54,1.14-2.92,5.21-4.41,7.77h-.77c-.29-2.09-1.03-7.02-1.08-7.78h-.03c-.13.88-.54,2.86-.84,4.3l-.72,3.48h-.79l1.77-8.37h1.23c.41,2.65.97,6.32,1.05,7.34h.02c.33-.7,2.71-4.72,4.25-7.34h1.24l-1.77,8.37h-.81l.79-3.72Z" style="fill:#3e72b8;"/><path d="M52.76,25.14v-8.27h2.22c1.03,1.86,2.94,5.21,3.32,6.11h.02c-.09-.86-.09-2.3-.09-3.66v-2.45h1.62v8.27h-2.1c-.89-1.62-3-5.46-3.41-6.42h-.02c.06.72.08,2.42.08,3.9v2.51h-1.63Z" style="fill:#3e72b8;"/><path d="M63.52,16.87v4.93c0,1.59.82,2.06,1.71,2.06,1.02,0,1.67-.56,1.67-2.06v-4.93h1.79v4.84c0,2.83-1.66,3.55-3.48,3.55s-3.47-.75-3.47-3.51v-4.87h1.79Z" style="fill:#3e72b8;"/><path d="M72.32,21.83v3.31h-1.75v-8.27h3.63c1.8,0,2.77.99,2.77,2.27,0,1.11-.6,1.71-1.2,1.96.41.15,1.03.58,1.03,2.06v.41c0,.56,0,1.19.12,1.58h-1.69c-.15-.36-.17-.98-.17-1.86v-.12c0-.9-.23-1.33-1.56-1.33h-1.18ZM72.32,20.41h1.5c.98,0,1.36-.37,1.36-1.06s-.44-1.05-1.31-1.05h-1.54v2.11Z" style="fill:#3e72b8;"/><path d="M79.86,22.71c.19.83.78,1.19,1.74,1.19s1.36-.38,1.36-.98c0-.67-.4-.97-1.81-1.29-2.25-.53-2.81-1.35-2.81-2.46,0-1.44,1.08-2.42,3.04-2.42,2.2,0,3.07,1.18,3.19,2.39h-1.8c-.09-.51-.37-1.06-1.43-1.06-.73,0-1.16.3-1.16.89s.35.81,1.69,1.12c2.41.57,2.93,1.46,2.93,2.63,0,1.51-1.14,2.55-3.33,2.55s-3.2-1.03-3.4-2.54h1.8Z" style="fill:#3e72b8;"/><path d="M85.79,19.27c.11-.97.8-2.17,2.77-2.17,1.83,0,2.64,1.03,2.64,2.15,0,.95-.55,1.4-.98,1.6v.03c.51.19,1.28.68,1.28,1.9,0,1.14-.69,2.49-2.96,2.49-2.11,0-2.83-1.28-2.91-2.32h1.67c.11.54.48,1.01,1.29,1.01s1.19-.51,1.19-1.21c0-.73-.37-1.17-1.29-1.17h-.71v-1.32h.63c.79,0,1.11-.26,1.11-.92,0-.54-.32-.91-1-.91-.8,0-.99.45-1.08.84h-1.63Z" style="fill:#3e72b8;"/><path d="M96.17,25.14v-1.77h-3.57v-1.5l3.29-4.62h1.87v4.73h.95l-.16,1.39h-.79v1.77h-1.59ZM96.17,20.57c0-.86,0-1.33.03-1.83-.31.66-1.34,2.16-2.08,3.23h2.05v-1.4Z" style="fill:#3e72b8;"/><path d="M105.79,21.14c0,2.17-.69,4.14-3.03,4.14s-3.03-1.9-3.03-4.09.79-4.09,3.07-4.09,3,1.8,3,4.04ZM101.49,21.17c0,1.45.17,2.74,1.28,2.74s1.23-1.21,1.23-2.76-.19-2.68-1.22-2.68-1.3.99-1.3,2.7Z" style="fill:#3e72b8;"/><path d="M110.2,16.87h1.79v6.8h4.12l-.2,1.47h-5.7v-8.27Z" style="fill:#3e72b8;"/><path d="M118.45,22.4c0,.78.39,1.54,1.25,1.54.72,0,.92-.29,1.08-.66h1.72c-.22.76-.9,2.01-2.85,2.01s-2.93-1.53-2.93-3.16c0-1.95,1-3.34,2.99-3.34,2.13,0,2.86,1.54,2.86,3.09,0,.21,0,.35-.02.52h-4.1ZM120.85,21.35c-.01-.72-.3-1.33-1.14-1.33s-1.15.57-1.22,1.33h2.36Z" style="fill:#3e72b8;"/><path d="M129.23,23.13c-.21,1.03-.94,2.15-2.79,2.15s-2.93-1.34-2.93-3.2,1.12-3.29,3.01-3.29c2.09,0,2.68,1.5,2.71,2.2h-1.68c-.11-.51-.39-.86-1.06-.86-.79,0-1.23.69-1.23,1.89,0,1.32.47,1.92,1.22,1.92.59,0,.91-.35,1.06-.82h1.69Z" style="fill:#3e72b8;"/><path d="M129.81,18.93h.96v-1.68h1.72v1.68h1.22v1.29h-1.22v3.06c0,.47.14.65.66.65.1,0,.26,0,.39-.02v1.18c-.34.12-.81.12-1.16.12-1.21,0-1.61-.65-1.61-1.73v-3.27h-.96v-1.29Z" style="fill:#3e72b8;"/><path d="M140.11,23.33c0,.6,0,1.25.01,1.8h-1.68c-.02-.17-.04-.5-.05-.72-.37.62-.92.86-1.71.86-1.26,0-2.07-.77-2.07-2.31v-4.04h1.72v3.7c0,.69.21,1.25.96,1.25.78,0,1.11-.42,1.11-1.65v-3.3h1.72v4.4Z" style="fill:#3e72b8;"/><path d="M141.66,20.61c0-.62,0-1.16-.01-1.68h1.69c.02.14.05.76.05,1.09.27-.71.94-1.23,1.99-1.23v1.64c-1.25-.03-1.99.3-1.99,2.01v2.71h-1.72v-4.52Z" style="fill:#3e72b8;"/><path d="M147.65,22.4c0,.78.39,1.54,1.25,1.54.71,0,.92-.29,1.08-.66h1.72c-.22.76-.9,2.01-2.85,2.01s-2.93-1.53-2.93-3.16c0-1.95,1-3.34,2.99-3.34,2.13,0,2.86,1.54,2.86,3.09,0,.21,0,.35-.02.52h-4.1ZM150.05,21.35c-.01-.72-.3-1.33-1.14-1.33s-1.15.57-1.22,1.33h2.36Z" style="fill:#3e72b8;"/><path d="M16.47,5.17v1.43h-6.24v3.29l-1.34-.16v-4.55h7.58Z" style="fill:#fff;"/><path d="M12.15,15.75v-3.15h-1.93v3.48l-1.34-.17v-4.69h7.58v4.68h-1.34v-3.29h-1.62v3.15h-1.34Z" style="fill:#fff;"/><path d="M11.22,23.28c-1.42-.27-2.45-1.19-2.45-2.84,0-2.09,1.7-3.08,3.86-3.08s3.94,1.02,3.94,3.15c0,1.76-1.19,2.61-2.45,2.77v-1.43c.58-.14,1.17-.49,1.17-1.39,0-1.18-1.22-1.63-2.6-1.63-1.28,0-2.63.39-2.63,1.67,0,.93.72,1.22,1.16,1.35v1.43Z" style="fill:#fff;"/><path d="M15.12,26.31v-2h1.34v5.43h-1.34v-2h-6.24v-1.43h6.24Z" style="fill:#fff;"/><path d="M16.47,32.64h-4.52c-1.46,0-1.89.65-1.89,1.36,0,.82.51,1.33,1.89,1.33h4.52v1.43h-4.44c-2.59,0-3.25-1.32-3.25-2.77s.69-2.77,3.22-2.77h4.47v1.43Z" style="fill:#fff;"/><path d="M11.92,40.14h-3.04v-1.39h7.58v2.9c0,1.44-.91,2.21-2.08,2.21-1.02,0-1.57-.48-1.79-.96-.14.33-.53.82-1.89.82h-.37c-.51,0-1.09,0-1.45.09v-1.35c.33-.12.9-.14,1.7-.14h.11c.83,0,1.22-.18,1.22-1.25v-.94ZM13.22,40.14v1.2c0,.78.34,1.08.98,1.08s.96-.35.96-1.05v-1.23h-1.94Z" style="fill:#fff;"/><path d="M12.15,50.14v-3.15h-1.93v3.48l-1.34-.17v-4.69h7.58v4.68h-1.34v-3.29h-1.62v3.15h-1.34Z" style="fill:#fff;"/></g></svg>